<svg width="1440" height="1024" viewBox="0 0 1440 1024" fill="none" xmlns="http://www.w3.org/2000/svg">
<path d="M274.966 987.966C274.966 1117.46 169.992 1222.43 40.4999 1222.43C-88.9923 1222.43 -193.967 1117.46 -193.967 987.966C-193.967 858.474 -88.9923 753.5 40.4999 753.5C169.992 753.5 274.966 858.474 274.966 987.966Z" fill="#55BBEB"/>
<circle cx="-0.434479" cy="134.566" r="387.566" transform="rotate(90 -0.434479 134.566)" fill="#55BBEB"/>
<path d="M1257.69 535C1361.19 484 1310.5 510.5 1440.19 465V1034.5H852C852 995.833 856.896 943.274 918.688 907.5C956.688 885.5 1128.17 887.167 1171 859.5C1240.83 837.333 1161.19 614.5 1257.69 535Z" fill="#55BBEB"/>
</svg>
