<svg width="352" height="96" viewBox="0 0 352 96" fill="none" xmlns="http://www.w3.org/2000/svg">
<g clip-path="url(#clip0_4_92)">
<mask id="mask0_4_92" style="mask-type:luminance" maskUnits="userSpaceOnUse" x="86" y="0" width="267" height="96">
<path d="M352 0H86.0447V96H352V0Z" fill="white"/>
</mask>
<g mask="url(#mask0_4_92)">
<path d="M90.2966 77.1098H117.018C133.491 77.1098 142.685 69.8371 142.685 58.3142C142.685 48.8691 136.555 44.2413 127.648 43.1078C135.31 41.5021 140.291 36.7795 140.291 28.4679C140.291 17.4173 131.288 10.9946 115.772 10.9946H90.2966V77.1098ZM116.155 22.1398C122.381 22.1398 125.925 25.2566 125.925 30.1681C125.925 35.0794 122.285 38.1965 116.155 38.1965H104.663V22.1398H116.155ZM117.113 49.1526C123.913 49.1526 127.936 52.2694 127.936 57.6531C127.936 62.7536 124.009 65.8704 117.113 65.8704H104.663V49.1526H117.113Z" fill="#364954"/>
<path d="M173.593 77.6765C186.714 77.6765 195.238 70.1206 196.77 60.6755H183.458C182.308 65.2093 178.477 67.5706 173.018 67.5706C166.218 67.5706 161.717 63.4147 161.43 56.5197V55.8585H197.153C197.441 54.3475 197.536 52.7417 197.536 51.3248C197.345 37.063 187.384 27.9957 172.635 27.9957C157.407 27.9957 147.351 37.8185 147.351 52.9305C147.351 67.9481 157.215 77.6765 173.593 77.6765ZM161.717 47.1693C162.483 41.4077 166.889 37.9129 172.731 37.9129C178.861 37.9129 182.979 41.2189 183.936 47.1693H161.717Z" fill="#364954"/>
<path d="M215.795 77.3933L214.55 80.6045C213.209 83.9104 212.06 84.7603 208.612 84.7603H201.141V96H214.262C221.924 96 224.414 92.033 227.479 84.0048L249.315 28.5624H234.854L223.169 63.1312L211.198 28.5624H196.832L215.795 77.3933Z" fill="#364954"/>
<path d="M259.745 23.3676C264.151 23.3676 267.598 20.1563 267.598 15.906C267.598 11.5613 264.151 8.35001 259.745 8.35001C255.34 8.35001 251.892 11.5613 251.892 15.906C251.892 20.1563 255.34 23.3676 259.745 23.3676ZM252.945 77.1097H266.545V28.5624H252.945V77.1097Z" fill="#364954"/>
<path d="M333.802 27.9957C326.333 27.9957 320.586 31.0181 317.138 36.2128C314.073 30.0736 308.423 27.9012 302.389 27.9957C295.206 28.0901 290.896 30.8292 287.927 34.6074L286.682 28.5624H274.902V77.1098H288.406V50.6637C288.406 43.391 292.237 38.952 298.079 38.952C304.017 38.952 306.699 42.7299 306.699 50.0026V77.1098H320.203V50.5693C320.203 43.2022 324.131 38.952 329.972 38.952C335.814 38.952 338.495 42.7299 338.495 50.0026V77.1098H352V49.247C352 33.6627 343.956 27.9957 333.802 27.9957Z" fill="#364954"/>
</g>
<mask id="mask1_4_92" style="mask-type:alpha" maskUnits="userSpaceOnUse" x="0" y="0" width="352" height="97">
<path d="M66.5926 68.993V66.4106C66.5926 57.4448 59.2229 50.1766 50.1316 50.1766H47.8869C40.0353 50.1766 33.6706 43.8998 33.6706 36.1568V31.7294C33.6706 26.4316 38.0254 22.1368 43.3974 22.1368C48.7694 22.1368 53.1246 17.842 53.1246 12.5442V9.59261C53.1246 4.29475 48.7694 -2.31577e-07 43.3974 0C38.0254 2.31577e-07 33.6706 4.38611 33.6706 9.68397C33.6706 15.0837 29.2318 19.5542 23.7564 19.5542H16.6482C7.45365 19.5542 -4.01907e-07 26.9048 0 35.9725C4.01907e-07 45.0397 7.45365 52.3904 16.6482 52.3904H17.0223C26.2168 52.3904 33.6706 59.8339 33.6706 68.9014C33.6706 77.8669 41.0403 85.2269 50.1316 85.2269C59.2229 85.2269 66.5926 77.9587 66.5926 68.993Z" fill="#36373A"/>
<path d="M90.2966 77.1098H117.018C133.491 77.1098 142.685 69.8371 142.685 58.3142C142.685 48.8691 136.555 44.2413 127.648 43.1078C135.31 41.5021 140.291 36.7795 140.291 28.4679C140.291 17.4173 131.288 10.9946 115.772 10.9946H90.2966V77.1098ZM116.155 22.1398C122.381 22.1398 125.925 25.2566 125.925 30.1681C125.925 35.0794 122.285 38.1965 116.155 38.1965H104.663V22.1398H116.155ZM117.113 49.1526C123.913 49.1526 127.936 52.2694 127.936 57.6531C127.936 62.7536 124.009 65.8704 117.113 65.8704H104.663V49.1526H117.113Z" fill="#36373A"/>
<path d="M173.593 77.6765C186.714 77.6765 195.238 70.1206 196.77 60.6755H183.458C182.308 65.2093 178.477 67.5706 173.018 67.5706C166.218 67.5706 161.717 63.4147 161.43 56.5197V55.8585H197.153C197.441 54.3475 197.536 52.7417 197.536 51.3248C197.345 37.063 187.384 27.9957 172.635 27.9957C157.407 27.9957 147.351 37.8185 147.351 52.9305C147.351 67.9481 157.215 77.6765 173.593 77.6765ZM161.717 47.1693C162.483 41.4077 166.889 37.9129 172.731 37.9129C178.861 37.9129 182.979 41.2189 183.936 47.1693H161.717Z" fill="#36373A"/>
<path d="M216.963 77.8309L215.718 81.0421C214.377 84.348 213.228 85.1979 209.78 85.1979H202.31V96.4376H215.431C223.093 96.4376 225.583 92.4706 228.648 84.4424L250.484 29H236.022L224.338 63.5688L212.366 29H198L216.963 77.8309Z" fill="#36373A"/>
<path d="M259.745 23.3676C264.151 23.3676 267.598 20.1563 267.598 15.906C267.598 11.5613 264.151 8.35001 259.745 8.35001C255.34 8.35001 251.892 11.5613 251.892 15.906C251.892 20.1563 255.34 23.3676 259.745 23.3676ZM252.945 77.1097H266.545V28.5624H252.945V77.1097Z" fill="#36373A"/>
<path d="M333.802 27.9957C326.333 27.9957 320.586 31.0181 317.138 36.2128C314.073 30.0736 308.423 27.9012 302.389 27.9957C295.206 28.0901 290.896 30.8292 287.927 34.6074L286.682 28.5624H274.902V77.1098H288.406V50.6637C288.406 43.391 292.237 38.952 298.079 38.952C304.017 38.952 306.699 42.7299 306.699 50.0026V77.1098H320.203V50.5693C320.203 43.2022 324.131 38.952 329.972 38.952C335.814 38.952 338.495 42.7299 338.495 50.0026V77.1098H352V49.247C352 33.6627 343.956 27.9957 333.802 27.9957Z" fill="#36373A"/>
</mask>
<g mask="url(#mask1_4_92)">
<path d="M70.3984 0H-11.7349V92H70.3984V0Z" fill="#55BBEB"/>
</g>
</g>
<defs>
<clipPath id="clip0_4_92">
<rect width="352" height="96" fill="white"/>
</clipPath>
</defs>
</svg>
