<svg width="20" height="21" viewBox="0 0 20 21" fill="none" xmlns="http://www.w3.org/2000/svg">
<path d="M7.81249 9.59609C7.90753 9.54123 7.98644 9.46231 8.04129 9.36727C8.09615 9.27223 8.12502 9.16442 8.12499 9.05469V3.42969C8.12443 3.33004 8.10006 3.23198 8.0539 3.14367C8.00774 3.05536 7.94113 2.97936 7.85964 2.92202C7.77814 2.86469 7.68412 2.82766 7.5854 2.81405C7.48669 2.80043 7.38616 2.81062 7.29218 2.84375C5.46794 3.48939 3.93383 4.76457 2.96563 6.44005C1.99743 8.11554 1.65863 10.0815 2.01015 11.9844C2.02837 12.0828 2.06995 12.1754 2.1314 12.2544C2.19285 12.3333 2.27237 12.3964 2.36327 12.4383C2.44519 12.4766 2.53456 12.4963 2.62499 12.4961C2.73469 12.4961 2.84247 12.4673 2.93749 12.4125L7.81249 9.59609ZM6.87499 4.37656V8.69375L3.13437 10.8523C3.12499 10.7344 3.12499 10.6156 3.12499 10.5C3.1261 9.23309 3.47678 7.99106 4.13843 6.91066C4.80007 5.83025 5.74701 4.95337 6.87499 4.37656ZM18.125 10.5C18.1256 12.2837 17.5393 14.018 16.4564 15.4354C15.3735 16.8528 13.8543 17.8745 12.1332 18.3428C10.4121 18.8111 8.58472 18.7 6.93298 18.0267C5.28125 17.3534 3.89698 16.1553 2.99374 14.6172C2.95164 14.5461 2.92403 14.4675 2.91251 14.3857C2.901 14.3039 2.9058 14.2207 2.92665 14.1407C2.9475 14.0608 2.98398 13.9859 3.03398 13.9201C3.08398 13.8544 3.14651 13.7992 3.21796 13.7578L9.37499 10.1742V3C9.37499 2.83424 9.44084 2.67527 9.55805 2.55806C9.67526 2.44085 9.83423 2.375 9.99999 2.375C11.4179 2.37572 12.8109 2.74729 14.0408 3.45282C15.2706 4.15834 16.2946 5.17328 17.0109 6.39688C17.0195 6.40938 17.0273 6.42188 17.0351 6.43516C17.043 6.44844 17.0508 6.46406 17.0578 6.47812C17.7588 7.70247 18.1268 9.08916 18.125 10.5Z" fill="#1C1C1C"/>
</svg>
