<svg width="20" height="21" viewBox="0 0 20 21" fill="none" xmlns="http://www.w3.org/2000/svg">
<path d="M6.98918 4.73334C6.86011 4.51997 6.72107 4.3128 6.57251 4.11251C7.56812 3.38758 8.76844 2.99798 10 3.00001C11.1 3.00001 12.1292 3.30417 13.0067 3.83334C12.9399 4.21697 12.8044 4.58538 12.6067 4.92084C12.5667 4.98501 12.4 5.14834 12.0967 5.37417C11.9617 5.47417 11.8125 5.56667 11.6333 5.67417L11.5717 5.71001C11.4158 5.80334 11.2367 5.91001 11.0642 6.02834C10.6575 6.30667 10.2342 6.68334 9.94918 7.29251C9.77264 7.6722 9.73719 8.10237 9.84918 8.50584C9.87834 8.61834 9.89418 8.73084 9.89501 8.83084C9.89501 8.86167 9.88251 8.91084 9.81418 8.96834C9.73718 9.03117 9.64105 9.06586 9.54168 9.06667C8.64418 9.05667 7.93584 8.31334 7.83334 7.12751C7.75501 6.22584 7.38668 5.39167 6.98918 4.73334ZM13.8767 12.5908C14.0967 12.5883 14.3033 12.5742 14.4975 12.5492C13.7566 13.4459 12.7648 14.1008 11.6492 14.43C11.6108 14.1125 11.6358 13.73 11.8233 13.3775C11.9833 13.0758 12.3883 12.85 12.935 12.7158C13.238 12.6426 13.5476 12.6007 13.8592 12.5908H13.8692H13.8767Z" fill="#292929"/>
<path d="M4.16663 8.83314C4.16663 7.39981 4.68329 6.08814 5.53996 5.07314C5.62496 5.19231 5.70913 5.32064 5.79079 5.45648C6.12579 6.00981 6.38496 6.63648 6.43829 7.24814C6.57996 8.88981 7.67246 10.4456 9.52579 10.4665C10.3266 10.4748 11.2975 9.87314 11.295 8.82648C11.295 8.58731 11.2566 8.35398 11.2016 8.14731C11.1739 8.0609 11.1796 7.96727 11.2175 7.88481C11.3591 7.58148 11.5691 7.37898 11.8558 7.18314C11.9891 7.09148 12.1275 7.00814 12.2875 6.91314L12.3516 6.87481C12.5316 6.76731 12.7358 6.64314 12.9333 6.49648C13.2208 6.28231 13.5916 5.98148 13.7891 5.67148C13.945 5.42648 14.0891 5.11231 14.2008 4.78564C15.2499 5.87164 15.8353 7.32318 15.8333 8.83314C15.8333 9.27648 15.7833 9.70814 15.69 10.1248C15.6347 10.3 15.5492 10.4641 15.4375 10.6098C15.24 10.8656 14.8441 11.1806 13.8625 11.1906H13.8316L13.7516 11.1931C13.3633 11.2095 12.9776 11.264 12.6 11.3556C11.9675 11.5106 11.0408 11.864 10.5858 12.7215C10.2275 13.3973 10.1858 14.0923 10.2675 14.6606C9.47978 14.6965 8.69302 14.5723 7.95467 14.2956C7.21632 14.0189 6.54169 13.5955 5.97152 13.0508C5.40135 12.5062 4.94745 11.8517 4.63724 11.1268C4.32703 10.4019 4.16694 9.62163 4.16663 8.83314Z" fill="#292929"/>
<path fill-rule="evenodd" clip-rule="evenodd" d="M15.0034 1.7499C15.1138 1.6266 15.2687 1.55218 15.434 1.54296C15.5993 1.53374 15.7615 1.59049 15.885 1.70073C16.853 2.56458 17.6272 3.62344 18.1569 4.80775C18.6866 5.99206 18.9597 7.27503 18.9584 8.5724C18.9584 13.3649 15.3009 17.3041 10.625 17.7499V18.2082H11.6667C11.8324 18.2082 11.9914 18.2741 12.1086 18.3913C12.2258 18.5085 12.2917 18.6675 12.2917 18.8332C12.2917 18.999 12.2258 19.158 12.1086 19.2752C11.9914 19.3924 11.8324 19.4582 11.6667 19.4582H8.33335C8.16759 19.4582 8.00862 19.3924 7.89141 19.2752C7.7742 19.158 7.70835 18.999 7.70835 18.8332C7.70835 18.6675 7.7742 18.5085 7.89141 18.3913C8.00862 18.2741 8.16759 18.2082 8.33335 18.2082H9.37502V17.7841C8.14004 17.7366 6.92729 17.4407 5.80921 16.9141C4.69113 16.3875 3.69065 15.641 2.86752 14.7191C2.81224 14.658 2.76959 14.5866 2.742 14.5089C2.71442 14.4313 2.70246 14.349 2.7068 14.2667C2.71115 14.1845 2.73171 14.1039 2.76731 14.0296C2.80292 13.9553 2.85286 13.8888 2.91426 13.8338C2.97566 13.7789 3.04732 13.7367 3.1251 13.7096C3.20289 13.6824 3.28527 13.6709 3.36751 13.6758C3.44975 13.6806 3.53023 13.7016 3.60431 13.7377C3.6784 13.7737 3.74462 13.824 3.79919 13.8857C4.54587 14.7224 5.46117 15.3917 6.48494 15.8494C7.50871 16.3071 8.61775 16.543 9.73919 16.5416C11.8527 16.5416 13.8797 15.702 15.3742 14.2074C16.8687 12.7129 17.7084 10.686 17.7084 8.5724C17.7097 7.4509 17.4737 6.34181 17.0158 5.31804C16.5579 4.29428 15.8885 3.379 15.0517 2.6324C14.9904 2.57767 14.9405 2.51139 14.9048 2.43735C14.8692 2.36331 14.8485 2.28297 14.8439 2.20093C14.8394 2.11888 14.851 2.03674 14.8782 1.9592C14.9054 1.88167 14.9477 1.81026 15.0025 1.74906" fill="#292929"/>
</svg>
