<svg width="20" height="21" viewBox="0 0 20 21" fill="none" xmlns="http://www.w3.org/2000/svg">
<path d="M8.91494 4.04095C9.20494 4.00095 9.38794 4.00795 9.52794 4.03595C9.70091 4.07565 9.86546 4.14574 10.0139 4.24295C10.0984 4.2948 10.1923 4.32939 10.2902 4.34473C10.3882 4.36007 10.4882 4.35584 10.5844 4.3323C10.6807 4.30876 10.7714 4.26637 10.8512 4.20758C10.931 4.14879 10.9983 4.07476 11.0493 3.98978C11.1003 3.9048 11.134 3.81055 11.1484 3.71249C11.1627 3.61442 11.1575 3.51447 11.133 3.41843C11.1086 3.32239 11.0653 3.23216 11.0057 3.15294C10.9461 3.07373 10.8714 3.00712 10.7859 2.95695C10.4899 2.77112 10.1637 2.63846 9.82194 2.56495C9.46294 2.49295 9.09794 2.49995 8.69394 2.55795L8.67594 2.55995C7.87594 2.69395 7.24894 3.10695 6.82094 3.72195C6.40794 4.31795 6.20794 5.06195 6.15094 5.84695L6.14994 5.89995V5.90795L6.14894 5.93195L6.14594 6.01495L6.13294 6.28495C6.12294 6.50695 6.10594 6.80494 6.08694 7.15695L6.08194 7.24995H4.79994C4.60103 7.24995 4.41027 7.32896 4.26961 7.46961C4.12896 7.61027 4.04994 7.80103 4.04994 7.99995C4.04994 8.19886 4.12896 8.38962 4.26961 8.53027C4.41027 8.67093 4.60103 8.74995 4.79994 8.74995H5.99494L5.93794 9.71795C5.85047 11.2258 5.7548 12.7331 5.65094 14.2399C5.54394 15.5239 5.43094 16.3779 4.62394 16.8499C4.22094 17.0789 3.60494 17.0649 2.93394 16.7299C2.84549 16.6818 2.74823 16.6519 2.64798 16.6421C2.54773 16.6323 2.44654 16.6429 2.35044 16.673C2.25435 16.7032 2.16531 16.7525 2.08866 16.8178C2.012 16.8832 1.94929 16.9633 1.90427 17.0534C1.85926 17.1435 1.83285 17.2417 1.82663 17.3423C1.82041 17.4428 1.8345 17.5436 1.86807 17.6385C1.90163 17.7335 1.95399 17.8207 2.022 17.895C2.09002 17.9693 2.1723 18.0291 2.26394 18.0709C3.19094 18.5349 4.37394 18.7209 5.37094 18.1509L5.37694 18.1479C6.90994 17.2529 7.04494 15.5979 7.13694 14.4819L7.14694 14.3619V14.3579C7.20594 13.5889 7.37194 10.8979 7.49694 8.74995H9.29994C9.49886 8.74995 9.68962 8.67093 9.83027 8.53027C9.97093 8.38962 10.0499 8.19886 10.0499 7.99995C10.0499 7.80103 9.97093 7.61027 9.83027 7.46961C9.68962 7.32896 9.49886 7.24995 9.29994 7.24995H7.58394C7.62094 6.58195 7.64594 6.09395 7.64894 5.93395C7.69494 5.32795 7.84394 4.87895 8.05294 4.57795C8.15105 4.4331 8.27846 4.31046 8.42695 4.21796C8.57543 4.12546 8.74168 4.06515 8.91494 4.04095ZM16.7799 10.7809C16.9166 10.6396 16.9923 10.4501 16.9907 10.2535C16.9891 10.0568 16.9103 9.8687 16.7713 9.72957C16.6323 9.59045 16.4442 9.51149 16.2476 9.50969C16.0509 9.50788 15.8615 9.58339 15.7199 9.71995L13.1409 12.2979C12.8779 11.8525 12.6245 11.4014 12.3809 10.9449L12.3079 10.8279C12.1549 10.5829 11.9269 10.2169 11.6499 9.96095C11.4448 9.76353 11.1908 9.62441 10.9139 9.55794C10.5922 9.48954 10.257 9.52526 9.95694 9.65995C9.90827 9.68216 9.86145 9.70824 9.81694 9.73795L9.78394 9.76094C9.69794 9.82094 9.60094 9.88895 9.50094 9.99295C9.45594 10.0399 9.41094 10.0929 9.36894 10.1419L9.34694 10.1679L9.18294 10.3579C9.05259 10.5083 8.98731 10.7043 9.00147 10.9028C9.01563 11.1013 9.10807 11.2861 9.25844 11.4164C9.40882 11.5468 9.60482 11.6121 9.80333 11.5979C10.0018 11.5838 10.1866 11.4913 10.3169 11.3409L10.4899 11.1389L10.5109 11.1139L10.5779 11.0369L10.5899 11.0279C10.5993 11.0346 10.6129 11.0459 10.6309 11.0619C10.6879 11.1139 10.7559 11.1969 10.8429 11.3249C10.9006 11.4102 10.9566 11.4965 11.0109 11.5839L11.0989 11.7239C11.2199 11.9589 11.5889 12.6209 12.0449 13.3939L9.21994 16.2199C9.14626 16.2886 9.08715 16.3714 9.04616 16.4634C9.00517 16.5554 8.98313 16.6547 8.98135 16.7554C8.97957 16.8561 8.9981 16.9562 9.03582 17.0495C9.07354 17.1429 9.12969 17.2278 9.20091 17.299C9.27212 17.3702 9.35696 17.4263 9.45035 17.4641C9.54373 17.5018 9.64376 17.5203 9.74447 17.5185C9.84517 17.5168 9.94448 17.4947 10.0365 17.4537C10.1285 17.4127 10.2113 17.3536 10.2799 17.2799L12.9419 14.6189C13.2242 15.0971 13.4963 15.5812 13.7579 16.0709C13.7733 16.0949 13.7899 16.1236 13.8079 16.1569C13.9379 16.3779 14.1579 16.7539 14.4479 17.0289C14.6279 17.2009 14.8699 17.3689 15.1809 17.4509C15.5336 17.5399 15.9061 17.506 16.2369 17.3549C16.5929 17.1769 16.8129 16.9479 17.0409 16.5769C17.1449 16.4072 17.1772 16.2031 17.1307 16.0096C17.0842 15.816 16.9627 15.6489 16.7929 15.5449C16.6232 15.441 16.4191 15.4087 16.2256 15.4552C16.032 15.5017 15.8649 15.6232 15.7609 15.7929C15.7254 15.856 15.6832 15.915 15.6349 15.9689C15.6252 15.9783 15.6144 15.9867 15.6029 15.9939L15.5699 15.9999H15.5629L15.5429 15.9899C15.5203 15.9754 15.4992 15.9587 15.4799 15.9399C15.4031 15.8619 15.335 15.7758 15.2769 15.6829C15.2221 15.5983 15.1694 15.5123 15.1189 15.4249L15.0589 15.3219C14.7318 14.7149 14.3914 14.115 14.0379 13.5229L16.7799 10.7809Z" fill="#292929"/>
</svg>
