<svg width="20" height="21" viewBox="0 0 20 21" fill="none" xmlns="http://www.w3.org/2000/svg">
<g clip-path="url(#clip0_8_4073)">
<path d="M11.7462 10.4542C11.7462 9.08533 10.2639 8.22513 9.08448 8.90959C7.9051 9.594 7.9051 11.3144 9.08448 11.9989C10.2639 12.6833 11.7462 11.8231 11.7462 10.4542ZM15.8091 7.16635C16.9833 1.55346 14.4 -0.207951 10.0083 3.85494C5.87495 -0.0200601 2.93151 1.20115 4.18401 7.14283C-1.59177 8.88408 -1.20912 12.1618 4.231 13.8361C2.98631 19.3081 5.31131 21.3043 10.0083 17.1709C14.5644 21.2573 16.9824 19.344 15.7386 13.8126C21.6725 11.8007 21.1402 8.88857 15.8091 7.16635ZM15.0106 6.95502C14.0797 6.74502 13.179 6.59217 12.2628 6.50877C11.7802 5.80303 11.218 5.09803 10.5719 4.44213C14.093 1.06478 16.1681 2.12006 15.0106 6.95502ZM5.92194 11.5345C6.27026 12.2782 6.72823 12.9592 7.07268 13.5307C6.51178 13.4733 5.90756 13.3862 5.26432 13.2724C5.47295 12.6891 5.69218 12.1097 5.9219 11.5345M5.87491 9.51478C5.61866 8.8997 5.38487 8.30607 5.19385 7.75342C5.85784 7.61576 6.50854 7.4908 7.07264 7.4481C6.6528 8.10764 6.25401 8.7972 5.87491 9.51478ZM6.36807 10.5481C6.94237 9.39799 7.54987 8.30627 8.22338 7.33068C9.41846 7.26193 10.6008 7.26803 11.7696 7.35416C12.4251 8.26756 13.0369 9.35924 13.6249 10.5481C13.1849 11.4574 12.5601 12.5053 11.8401 13.6247C10.6378 13.7157 9.4051 13.7031 8.15295 13.6247C7.5183 12.6524 6.92229 11.6283 6.36807 10.5481ZM14.0712 11.5345C14.2992 12.0879 14.5099 12.6519 14.7053 13.2254C14.1155 13.3496 13.5197 13.4437 12.9204 13.5072C13.3225 12.8842 13.704 12.2227 14.0712 11.5345ZM12.9204 7.44814C13.5607 7.53576 14.1793 7.64521 14.7757 7.77689C14.5774 8.36706 14.3501 8.94706 14.0946 9.51478C13.7311 8.79783 13.3408 8.10779 12.9204 7.4481M11.1121 6.41474C10.3806 6.38603 9.63659 6.38697 8.881 6.41474C9.21178 5.9797 9.58045 5.52529 9.98483 5.05263C10.3789 5.47795 10.7522 5.93576 11.1121 6.41474ZM9.42116 4.44201C8.7751 5.09791 8.21295 5.77943 7.73026 6.48517C6.81412 6.56857 5.88991 6.72142 4.95905 6.93139C3.85522 2.02303 5.90018 1.06463 9.42116 4.44201ZM4.44237 13.061C-0.450328 11.5893 -0.215484 9.29564 4.39537 7.94135C4.67744 8.7972 5.01889 9.66646 5.40526 10.5012C5.02987 11.3645 4.69748 12.2511 4.44237 13.061ZM5.05295 14.0474C5.88276 14.251 6.76213 14.3487 7.6833 14.4467C8.23752 15.2288 8.81151 15.956 9.42119 16.5838C5.8358 20.0204 3.83709 18.7718 5.05295 14.0474M9.98483 15.9967C9.55994 15.5567 9.16327 15.0582 8.78709 14.5172C9.62565 14.5348 10.4355 14.5368 11.206 14.5172C10.8372 15.0407 10.429 15.5353 9.98483 15.9967ZM10.5719 16.5838C11.2261 15.8731 11.8028 15.1526 12.3098 14.4232C13.1752 14.3595 14.052 14.2266 14.9401 14.024C16.167 19.0526 13.9394 19.7951 10.5719 16.5838ZM15.5272 13.0142C15.2757 12.2042 14.958 11.3645 14.5879 10.5013C14.9646 9.67526 15.2939 8.82843 15.5742 7.9649C20.0755 9.32701 20.4356 11.5033 15.5272 13.0142Z" fill="#292929"/>
</g>
<path d="M9.99996 9.66687C10.221 9.66687 10.4329 9.75467 10.5892 9.91095C10.7455 10.0672 10.8333 10.2792 10.8333 10.5002C10.8333 10.7212 10.7455 10.9332 10.5892 11.0895C10.4329 11.2457 10.221 11.3335 9.99996 11.3335C9.77895 11.3335 9.56699 11.2457 9.41071 11.0895C9.25443 10.9332 9.16663 10.7212 9.16663 10.5002C9.16663 10.2792 9.25443 10.0672 9.41071 9.91095C9.56699 9.75467 9.77895 9.66687 9.99996 9.66687ZM3.51663 4.01687C4.7083 2.82521 7.29163 3.35854 9.99996 5.13354C12.7083 3.35854 15.2916 2.82521 16.4833 4.01687C17.675 5.20854 17.1416 7.79187 15.3666 10.5002C17.1416 13.2085 17.675 15.7919 16.4833 16.9835C15.2916 18.1752 12.7083 17.6419 9.99996 15.8669C7.29163 17.6419 4.7083 18.1752 3.51663 16.9835C2.32496 15.7919 2.8583 13.2085 4.6333 10.5002C2.8583 7.79187 2.32496 5.20854 3.51663 4.01687ZM12.95 7.55021C13.4583 8.06687 13.925 8.59187 14.3583 9.11687C15.5083 7.34187 15.925 5.81687 15.3 5.20021C14.6833 4.57521 13.1583 4.99187 11.3833 6.14187C11.9083 6.57521 12.4333 7.04187 12.95 7.55021ZM7.04996 13.4502C6.54163 12.9335 6.07496 12.4085 5.64163 11.8835C4.49163 13.6585 4.07496 15.1835 4.69996 15.8002C5.31663 16.4252 6.84163 16.0085 8.61663 14.8585C8.09163 14.4252 7.56663 13.9585 7.04996 13.4502ZM4.69996 5.20021C4.07496 5.81687 4.49163 7.34187 5.64163 9.11687C6.07496 8.59187 6.54163 8.06687 7.04996 7.55021C7.56663 7.04187 8.09163 6.57521 8.61663 6.14187C6.84163 4.99187 5.31663 4.57521 4.69996 5.20021ZM8.2333 12.2669C8.81663 12.8502 9.41663 13.3835 9.99996 13.8585C10.5833 13.3835 11.1833 12.8502 11.7666 12.2669C12.35 11.6835 12.8833 11.0835 13.3583 10.5002C12.8833 9.91687 12.35 9.31687 11.7666 8.73354C11.1833 8.15021 10.5833 7.61687 9.99996 7.14187C9.41663 7.61687 8.81663 8.15021 8.2333 8.73354C7.64996 9.31687 7.11663 9.91687 6.64163 10.5002C7.11663 11.0835 7.64996 11.6835 8.2333 12.2669ZM15.3 15.8002C15.925 15.1835 15.5083 13.6585 14.3583 11.8835C13.925 12.4085 13.4583 12.9335 12.95 13.4502C12.4333 13.9585 11.9083 14.4252 11.3833 14.8585C13.1583 16.0085 14.6833 16.4252 15.3 15.8002Z" fill="black"/>
<defs>
<clipPath id="clip0_8_4073">
<rect width="20" height="20" fill="white" transform="translate(0 0.5)"/>
</clipPath>
</defs>
</svg>
