<svg width="20" height="21" viewBox="0 0 20 21" fill="none" xmlns="http://www.w3.org/2000/svg">
<path d="M5.00004 18.8332C4.54171 18.8332 4.14948 18.6701 3.82337 18.344C3.49726 18.0179 3.33393 17.6254 3.33337 17.1665V3.83317C3.33337 3.37484 3.49671 2.98262 3.82337 2.6565C4.15004 2.33039 4.54226 2.16706 5.00004 2.1665H15C15.4584 2.1665 15.8509 2.32984 16.1775 2.6565C16.5042 2.98317 16.6673 3.37539 16.6667 3.83317V17.1665C16.6667 17.6248 16.5037 18.0173 16.1775 18.344C15.8514 18.6707 15.4589 18.8337 15 18.8332H5.00004ZM9.16671 9.6665L11.25 8.4165L13.3334 9.6665V3.83317H9.16671V9.6665Z" fill="#292929"/>
</svg>
